<svg xmlns="http://www.w3.org/2000/svg" width="150" height="191.872" viewBox="0 0 150 191.872">
  <g id="big-ben" transform="translate(-55.953)">
    <g id="Group_30" data-name="Group 30" transform="translate(55.953 0)">
      <g id="Group_29" data-name="Group 29">
        <path id="Path_26" data-name="Path 26" d="M197.534,191.872a2.806,2.806,0,0,1-2.806-2.806V169.422h-9.354v19.644a2.806,2.806,0,0,1-5.613,0V169.422h-9.354v19.644a2.806,2.806,0,0,1-5.613,0V169.422H155.44v19.644a2.806,2.806,0,0,1-2.806,2.806H133.925a2.806,2.806,0,0,1-2.806-2.806V169.422H119.894v19.644a2.806,2.806,0,0,1-5.613,0v-8.419h-7.649v8.419a2.806,2.806,0,0,1-5.613,0v-8.419H93.37v8.419a2.806,2.806,0,0,1-5.613,0V169.422H76.532v19.644a2.806,2.806,0,0,1-2.806,2.806H58.759a2.806,2.806,0,1,1,0-5.613H70.92V166.615a2.8,2.8,0,0,1,.319-1.3c.059-.114,6.085-11.867,8.1-29.5v-4.705a2.806,2.806,0,1,1,5.613,0v4.706c2.015,17.629,8.04,29.382,8.1,29.5a2.82,2.82,0,0,1,.318,1.3v8.419h7.649v-8.419a2.806,2.806,0,1,1,5.613,0v8.419h7.65v-8.427h0v-.022h0a2.788,2.788,0,0,1,.335-1.3c.348-.685,6.12-12.285,8.084-29.465v-4.706a2.806,2.806,0,1,1,5.613,0v4.705c1.962,17.167,7.727,28.762,8.084,29.466a2.8,2.8,0,0,1,.335,1.308h0v19.665h13.1v-56.28a12.7,12.7,0,0,0-1.523-6.758,5.623,5.623,0,0,1-4.09-5.4V74.789a5.619,5.619,0,0,1,5.613-5.613V60.758a2.806,2.806,0,0,1,.795-1.957l10.126-10.408V38.307a2.806,2.806,0,0,1,.524-1.633A75.53,75.53,0,0,0,172.277,7.453V2.806a2.806,2.806,0,0,1,5.613,0V7.453A75.521,75.521,0,0,0,188.9,36.677a2.819,2.819,0,0,1,.522,1.63V48.393L199.545,58.8a2.808,2.808,0,0,1,.795,1.957v8.419a5.619,5.619,0,0,1,5.613,5.613v10.29a2.806,2.806,0,1,1-5.613,0V74.789h-7.977a2.806,2.806,0,0,1,0-5.613h2.364V63.564H155.44v5.613H157.8a2.806,2.806,0,1,1,0,5.613h-7.976v43.03h50.513V96.3a2.806,2.806,0,1,1,5.613,0v21.515a5.623,5.623,0,0,1-4.09,5.4,12.7,12.7,0,0,0-1.523,6.758v59.087a2.806,2.806,0,0,1-2.806,2.806Zm-12.161-28.063h9.354V146.971h-9.354v1.706a2.806,2.806,0,0,1-5.613,0v-1.706h-9.354v16.838h9.354V159.9a2.806,2.806,0,0,1,5.613,0Zm-29.934,0h9.354V146.971H155.44Zm-34.013,0h8.159a97.347,97.347,0,0,1-4.079-12.405A97.35,97.35,0,0,1,121.427,163.809Zm-43.362,0h8.16a97.35,97.35,0,0,1-4.08-12.406A97.359,97.359,0,0,1,78.065,163.809Zm107.309-22.45h9.354v-11.38a21.363,21.363,0,0,1,.94-6.548H154.5a21.375,21.375,0,0,1,.94,6.548v11.38h9.354V131.85a2.806,2.806,0,1,1,5.613,0v9.509h9.354V131.85a2.806,2.806,0,1,1,5.613,0Zm16.917-18.717ZM159.279,57.951h31.609l-5.461-5.613h-2.861a2.806,2.806,0,0,1,0-5.613h1.239V41.114H166.361v5.613h4.981a2.806,2.806,0,1,1,0,5.613h-6.6Zm9.281-22.45h13.047a82.494,82.494,0,0,1-6.523-15.411A82.506,82.506,0,0,1,168.561,35.5Zm6.523,76.7a19.63,19.63,0,0,1-15.861-8.067c-.051-.061-.1-.124-.147-.19s-.087-.128-.126-.194a19.639,19.639,0,1,1,16.135,8.451Zm-9.571-9.392a14.029,14.029,0,1,0,12.377-24v8.309l.364-.259a2.806,2.806,0,1,1,3.253,4.573l-3.617,2.573V96.3a2.807,2.807,0,0,1-5.226,1.423Zm6.765-24a14.032,14.032,0,0,0-10.023,19.431l10.023-7.13Z" transform="translate(-55.953 0)" fill="#dd0713"/>
      </g>
    </g>
  </g>
</svg>
