<svg xmlns="http://www.w3.org/2000/svg" width="168.935" height="200.08" viewBox="0 0 168.935 200.08">
  <g id="care" transform="translate(-39.819 0)">
    <path id="Path_31" data-name="Path 31" d="M459.561,128.528a2.932,2.932,0,1,0,3.1,2.753A2.932,2.932,0,0,0,459.561,128.528Z" transform="translate(-253.913 -78.262)" fill="#dd0713"/>
    <path id="Path_32" data-name="Path 32" d="M279.477,373.149a2.936,2.936,0,0,0-1.322,3.934,3.048,3.048,0,0,0,3.93,1.318,2.932,2.932,0,0,0-2.608-5.252Z" transform="translate(-144.944 -227.037)" fill="#dd0713"/>
    <path id="Path_33" data-name="Path 33" d="M451.922,100.638a2.935,2.935,0,0,0,2.835,2.186,3.109,3.109,0,0,0,2.839-3.676,2.933,2.933,0,1,0-5.674,1.49Z" transform="translate(-250.884 -59.042)" fill="#dd0713"/>
    <path id="Path_34" data-name="Path 34" d="M425.383,46.606a3.013,3.013,0,0,0,2.194-4.88,2.932,2.932,0,1,0-2.194,4.88Z" transform="translate(-232.988 -24.798)" fill="#dd0713"/>
    <path id="Path_35" data-name="Path 35" d="M333.442,345a2.934,2.934,0,1,0,.727-4.082h0A2.93,2.93,0,0,0,333.442,345Z" transform="translate(-178.476 -207.273)" fill="#dd0713"/>
    <path id="Path_36" data-name="Path 36" d="M307.425,358.035a2.931,2.931,0,0,0-1.044,4.016,3.036,3.036,0,0,0,4.016,1.04,2.933,2.933,0,0,0-2.972-5.057Z" transform="translate(-162.071 -217.773)" fill="#dd0713"/>
    <path id="Path_37" data-name="Path 37" d="M382.823,300.286a2.933,2.933,0,1,0,4.145-.012,2.934,2.934,0,0,0-4.145.012Z" transform="translate(-208.347 -182.327)" fill="#dd0713"/>
    <path id="Path_38" data-name="Path 38" d="M359.42,321.686a2.932,2.932,0,1,0,4.13.375A2.933,2.933,0,0,0,359.42,321.686Z" transform="translate(-193.973 -195.471)" fill="#dd0713"/>
    <path id="Path_39" data-name="Path 39" d="M162.34,5.845a3.155,3.155,0,0,0,2.929-3.082,2.933,2.933,0,1,0-2.929,3.082Z" transform="translate(-72.823)" fill="#dd0713"/>
    <path id="Path_40" data-name="Path 40" d="M443.39,72.988a3.063,3.063,0,0,0,2.6-4.278,2.932,2.932,0,1,0-2.6,4.278Z" transform="translate(-243.96 -40.871)" fill="#dd0713"/>
    <path id="Path_41" data-name="Path 41" d="M371.617,11.76a3.1,3.1,0,0,0,3.7-1.869,2.935,2.935,0,1,0-3.7,1.869Z" transform="translate(-200.813 -3.679)" fill="#dd0713"/>
    <path id="Path_42" data-name="Path 42" d="M399.674,25.27a2.933,2.933,0,1,0-.841-4.064A2.954,2.954,0,0,0,399.674,25.27Z" transform="translate(-218.323 -12.109)" fill="#dd0713"/>
    <path id="Path_43" data-name="Path 43" d="M341.013,5.922a2.932,2.932,0,1,0-2.749-3.105,2.933,2.933,0,0,0,2.749,3.105Z" transform="translate(-181.73 -0.039)" fill="#dd0713"/>
    <path id="Path_44" data-name="Path 44" d="M223.272,17.806a3.059,3.059,0,0,0,3.9-1.42,2.932,2.932,0,1,0-3.9,1.42Z" transform="translate(-110.679 -7.437)" fill="#dd0713"/>
    <path id="Path_45" data-name="Path 45" d="M193.6,8.1a3.129,3.129,0,0,0,3.445-2.307A2.932,2.932,0,1,0,193.6,8.1Z" transform="translate(-92.203 -1.394)" fill="#dd0713"/>
    <path id="Path_46" data-name="Path 46" d="M309.33,7.961a3.13,3.13,0,0,0,2.886-3.477,2.933,2.933,0,1,0-2.886,3.477Z" transform="translate(-162.33 -1.275)" fill="#dd0713"/>
    <path id="Path_47" data-name="Path 47" d="M251.632,34.194a3.024,3.024,0,0,0,2.3-4.748,2.933,2.933,0,1,0-2.3,4.748Z" transform="translate(-127.193 -17.251)" fill="#dd0713"/>
    <path id="Path_48" data-name="Path 48" d="M278.969,17.6q1.214-.888,1.212-.262a2.934,2.934,0,1,0-1.212.262Z" transform="translate(-143.865 -7.142)" fill="#dd0713"/>
    <path id="Path_49" data-name="Path 49" d="M130.937,11.5a3.1,3.1,0,0,0,2.8-3.825,2.932,2.932,0,1,0-2.8,3.825Z" transform="translate(-53.699 -3.428)" fill="#dd0713"/>
    <path id="Path_50" data-name="Path 50" d="M44.009,165.149a2.932,2.932,0,1,0-3.273-2.542v0A2.933,2.933,0,0,0,44.009,165.149Z" transform="translate(-0.544 -97.007)" fill="#dd0713"/>
    <path id="Path_51" data-name="Path 51" d="M58.175,71.627A2.99,2.99,0,0,0,62.141,70.4a2.934,2.934,0,1,0-3.965,1.224Z" transform="translate(-10.225 -40.25)" fill="#dd0713"/>
    <path id="Path_52" data-name="Path 52" d="M42.538,133.236a3.162,3.162,0,0,0,3.121-2.737,2.934,2.934,0,1,0-3.121,2.737Z" transform="translate(0 -77.566)" fill="#dd0713"/>
    <path id="Path_53" data-name="Path 53" d="M64.5,222.133a2.932,2.932,0,1,0-2.663,4.153A3.072,3.072,0,0,0,64.5,222.133Z" transform="translate(-11.621 -134.22)" fill="#dd0713"/>
    <path id="Path_54" data-name="Path 54" d="M47.141,101.609a3.112,3.112,0,0,0,3.6-2.061,2.932,2.932,0,1,0-3.6,2.061Z" transform="translate(-3.14 -58.363)" fill="#dd0713"/>
    <path id="Path_55" data-name="Path 55" d="M53.331,192.594h0a2.933,2.933,0,1,0-2.8,3.785,3.1,3.1,0,0,0,2.808-3.785Z" transform="translate(-4.731 -116.01)" fill="#dd0713"/>
    <path id="Path_56" data-name="Path 56" d="M452.366,191.749a2.932,2.932,0,1,0-1.729,5.6,3.11,3.11,0,0,0,3.668-1.94A2.932,2.932,0,0,0,452.366,191.749Z" transform="translate(-248.901 -116.682)" fill="#dd0713"/>
    <path id="Path_57" data-name="Path 57" d="M458.955,160.475a2.933,2.933,0,0,0-.77,5.815,3.146,3.146,0,0,0,3.293-2.522A2.929,2.929,0,0,0,458.955,160.475Z" transform="translate(-253.206 -97.703)" fill="#dd0713"/>
    <path id="Path_58" data-name="Path 58" d="M408.076,276.25a2.932,2.932,0,1,0,.45,4.125A2.932,2.932,0,0,0,408.076,276.25Z" transform="translate(-221.339 -167.825)" fill="#dd0713"/>
    <path id="Path_59" data-name="Path 59" d="M248.252,383.569a2.933,2.933,0,1,0,2.933-2.933A2.931,2.931,0,0,0,248.252,383.569Z" transform="translate(-126.922 -231.782)" fill="#dd0713"/>
    <path id="Path_60" data-name="Path 60" d="M441.28,221.733a2.933,2.933,0,0,0-2.46,5.326,3.059,3.059,0,0,0,3.891-1.436A2.93,2.93,0,0,0,441.28,221.733Z" transform="translate(-241.928 -134.855)" fill="#dd0713"/>
    <path id="Path_61" data-name="Path 61" d="M426.359,250.009a2.929,2.929,0,0,0-4.04.931h0a2.93,2.93,0,0,0,.931,4.04,3.028,3.028,0,0,0,4.044-.927A2.938,2.938,0,0,0,426.359,250.009Z" transform="translate(-232.643 -151.967)" fill="#dd0713"/>
    <path id="Path_62" data-name="Path 62" d="M189.975,358.511a2.931,2.931,0,0,0,1.032,4.017,3.028,3.028,0,0,0,4.016-1.033,2.932,2.932,0,0,0-5.049-2.984Z" transform="translate(-91.185 -217.432)" fill="#dd0713"/>
    <path id="Path_63" data-name="Path 63" d="M163.2,340.992a2.934,2.934,0,1,0,4.083-.716A2.934,2.934,0,0,0,163.2,340.992Z" transform="translate(-74.808 -206.882)" fill="#dd0713"/>
    <path id="Path_64" data-name="Path 64" d="M217.99,373.984a2.932,2.932,0,0,0,1.314,3.935,3.046,3.046,0,0,0,3.934-1.31,2.934,2.934,0,0,0-5.248-2.624Z" transform="translate(-108.305 -226.745)" fill="#dd0713"/>
    <path id="Path_65" data-name="Path 65" d="M137.956,321.334a2.934,2.934,0,1,0,4.134-.364A2.937,2.937,0,0,0,137.956,321.334Z" transform="translate(-59.342 -195.033)" fill="#dd0713"/>
    <path id="Path_66" data-name="Path 66" d="M93.592,275.36a2.933,2.933,0,1,0,4.122.465A2.934,2.934,0,0,0,93.592,275.36Z" transform="translate(-32.071 -167.287)" fill="#dd0713"/>
    <path id="Path_67" data-name="Path 67" d="M76.961,254.464a3.039,3.039,0,0,0,2.487-4.478,2.932,2.932,0,1,0-2.487,4.478Z" transform="translate(-20.83 -151.381)" fill="#dd0713"/>
    <path id="Path_68" data-name="Path 68" d="M116.694,304.49a2.934,2.934,0,1,0-2.061-5.021,2.924,2.924,0,0,0,2.061,5.021Z" transform="translate(-45.033 -181.842)" fill="#dd0713"/>
    <path id="Path_69" data-name="Path 69" d="M102.084,25.1a3.043,3.043,0,0,0,2.464-4.525,2.933,2.933,0,1,0-2.464,4.525Z" transform="translate(-36.128 -11.717)" fill="#dd0713"/>
    <path id="Path_70" data-name="Path 70" d="M75.814,45.019a2.932,2.932,0,1,0-.211-4.141A2.936,2.936,0,0,0,75.814,45.019Z" transform="translate(-21.328 -24.302)" fill="#dd0713"/>
    <path id="Path_71" data-name="Path 71" d="M90.657,49.156a2.932,2.932,0,0,0-4.134.334c-20.711,25.12-6.85,62.479,15.377,84.327,10.414,10.6,23.5,19.805,38.914,27.368a12.522,12.522,0,0,0,11.38.006c15.416-7.565,28.51-16.772,38.927-27.375,24-23.757,39.732-67.748,7.322-91.366a37.387,37.387,0,0,0-29.6-4.4A39.982,39.982,0,0,0,146.51,53.008c-10.118-13.8-29.036-19.91-45.126-13.943-3.555,1.32-1.516,6.816,2.04,5.5,14.921-5.535,32.719,1.184,40.519,15.295a2.958,2.958,0,0,0,5.134,0A33.759,33.759,0,0,1,170.3,43.73a31.582,31.582,0,0,1,25,3.676c10.274,6.511,19.11,22.773,14.23,43.092-3.419,14.236-11.022,27.428-22.6,39.208q-2.883,2.935-6.056,5.721a44.616,44.616,0,0,0-13-10.82c5.654-6.655,7.117-14.455,6.712-22.94a28.107,28.107,0,0,0-47.2-19.989c-5.636,5.225-8.749,12.38-9,20.691-.251,8.259,1.239,15.753,6.736,22.229a44.613,44.613,0,0,0-13,10.816q-3.164-2.779-6.042-5.708C86.026,109.9,72.51,76.239,90.99,53.29a2.932,2.932,0,0,0-.334-4.134Zm55.67,30.9c10.668-.123,21.7,7.347,22.41,21.893-7.649.4-15.217-1.44-19.818-8.074a2.978,2.978,0,0,0-4.819,0,20.008,20.008,0,0,1-19.823,8.078C125,87.752,135.841,80.191,146.327,80.055Zm-21.5,27.915a25.919,25.919,0,0,0,21.687-7.792,25.909,25.909,0,0,0,22.309,7.708,22.791,22.791,0,0,1-6,13.6,21.9,21.9,0,0,1-32.618,0,22.793,22.793,0,0,1-6-13.6Q124.511,107.932,124.822,107.97Zm-8.191,31.2a38.71,38.71,0,0,1,12.893-10.251,27.905,27.905,0,0,0,33.959.007,38.717,38.717,0,0,1,12.891,10.256,146.722,146.722,0,0,1-26.361,16.544,7.262,7.262,0,0,1-7.047-.019A146.684,146.684,0,0,1,116.631,139.171Z" transform="translate(-22.248 -22.397)" fill="#dd0713"/>
    <path id="Path_72" data-name="Path 72" d="M197.869,392.906c-3.744-3.518-9.913-4.556-14.442.244A50.107,50.107,0,0,1,162.876,405.6c1.281-7.043-4.528-13.776-11.834-12.491-7.025,1.237-16.778,1.481-23.356-4.383-6.474-5.771-16.525-4.715-22.194,1.638H97.521c-3.7-14.8-25.036-12.585-25.456,2.828v25.685c.429,15.5,21.944,17.616,25.491,2.669h9.162c21.379,9.1,48.094,10.4,69.259,1.409,3.495-1.472,1.216-6.881-2.278-5.405a77.609,77.609,0,0,1-32.7,5.614,91.777,91.777,0,0,1-32.533-7.247,2.933,2.933,0,0,0-1.155-.237H97.834V396.233h9.05a2.933,2.933,0,0,0,2.359-1.191c3.341-4.524,10.194-5.809,14.539-1.934,6.594,5.878,16.371,7.876,28.277,5.781,6.707-1.185,6.952,8.237,1.2,9.022a66.411,66.411,0,0,1-22.9-.6,2.933,2.933,0,1,0-1.237,5.734,70.075,70.075,0,0,0,31.141-.576c10.943-2.732,20.413-8.005,27.407-15.269,2.83-3,5.844-.331,6.178-.016s3.207,3.178.371,6.208a57.926,57.926,0,0,1-7.114,6.431c-3.064,2.34.626,6.9,3.56,4.662A63.791,63.791,0,0,0,198.5,407.4c4.543-4.854,3.119-10.964-.635-14.492Zm-105.9,25.973a7.018,7.018,0,0,1-14.037,0V393.194c.386-9.313,13.654-9.306,14.037,0v25.685Z" transform="translate(-19.636 -231.621)" fill="#dd0713"/>
  </g>
</svg>
