<svg xmlns="http://www.w3.org/2000/svg" width="199.06" height="196.41" viewBox="0 0 199.06 196.41">
  <g id="handshake" transform="translate(0.001 -0.5)">
    <path id="Path_76" data-name="Path 76" d="M198.249,144.427l-33.317-43.28a3.9,3.9,0,0,0-5.188-.911l-21.511,13.681H110.177a3.868,3.868,0,0,0-1.074.179l-21.752,6.262L64.78,114.183,42.848,100.236a3.9,3.9,0,0,0-5.132.841L.865,146.723a3.9,3.9,0,0,0,.492,5.41l19.315,16.622L38,192.107a13.782,13.782,0,0,0,8.67,23.151,13.883,13.883,0,0,0-.161,2.109A13.8,13.8,0,0,0,60.3,231.162c.05,0,.1,0,.147,0,0,.094-.006.187-.006.281A13.793,13.793,0,0,0,74.24,245.233a14.075,14.075,0,0,0,2.154-.169,13.795,13.795,0,0,0,23.475,8.4l2.109-2.109.885.714a13.788,13.788,0,0,0,23.378-10.13,13.771,13.771,0,0,0,14-13.995,13.783,13.783,0,0,0,14-14.009,13.786,13.786,0,0,0,11.784-21.3l12.652-26.5L197.7,149.767a3.9,3.9,0,0,0,.547-5.34ZM41.6,108.693l15.77,10.028L23.064,160.516,9.317,148.684Zm2.225,88.614,4.76-4.76c.144-.144.3-.281.451-.409a5.975,5.975,0,0,1,3.252-1.32c.033,0,.068,0,.1,0,.17-.014.34-.023.512-.021a5.952,5.952,0,0,1,4.271,1.876,6.136,6.136,0,0,1-.264,8.491l-4.615,4.615a5.987,5.987,0,1,1-8.467-8.468ZM56.07,221.6a5.986,5.986,0,0,1,0-8.467L65.3,203.9a6.051,6.051,0,0,1,6.807-1.175,5.968,5.968,0,0,1,3.3,6.183,6.319,6.319,0,0,1-1.783,3.607L64.539,221.6a5.987,5.987,0,0,1-8.468,0Zm13.936,14.071a5.986,5.986,0,0,1,0-8.467l9.228-9.229a6.054,6.054,0,0,1,7.238-.949,5.958,5.958,0,0,1,2.858,6.051,6.326,6.326,0,0,1-1.774,3.513l-9.082,9.082a5.987,5.987,0,0,1-8.468,0ZM85.88,247.942a5.994,5.994,0,0,1,0-8.467l4.76-4.76c.144-.144.295-.279.45-.407l.011-.009a5.966,5.966,0,0,1,2.655-1.233l.068-.009c.167-.03.337-.055.507-.07.068-.006.137-.006.207-.011.14-.008.278-.017.419-.015a5.949,5.949,0,0,1,4.271,1.876,5.4,5.4,0,0,1,.386.454,6.18,6.18,0,0,1-.674,8.061l-4.591,4.591a5.994,5.994,0,0,1-8.467,0Zm72.814-43.561a5.992,5.992,0,0,1-8.467,0,3.552,3.552,0,0,0-.266-.238l-25.1-25.362a3.9,3.9,0,0,0-5.549,5.492l25.37,25.634.009.009a5.988,5.988,0,1,1-8.468,8.468l-16.972-17.148a3.9,3.9,0,1,0-5.548,5.492l16.712,16.885a3.7,3.7,0,0,0,.273.305,5.988,5.988,0,1,1-8.47,8.467l-9.263-9.36a3.9,3.9,0,0,0-5.549,5.49l9,9.1a3.482,3.482,0,0,0,.275.307,5.987,5.987,0,0,1-8.467,8.468,8.633,8.633,0,0,0-.885-.706c-.255-.194-.322-.33-.194-.639s.322-.6.451-.914c.143-.352.258-.715.371-1.08a14.073,14.073,0,0,0,.506-6,13.654,13.654,0,0,0-11.636-11.75,13.922,13.922,0,0,0-3.343-12.561,13.692,13.692,0,0,0-9.832-4.315c-.137,0-.273,0-.412,0a13.66,13.66,0,0,0-13.523-14.071,14.038,14.038,0,0,0-3.331.354,13.661,13.661,0,0,0-13.384-11.712,13.826,13.826,0,0,0-9.424,3.545L28.5,166.2l36.1-43.976,11.5,3.147L61.073,151.884a13.8,13.8,0,0,0,5.2,18.8q.3.171.607.325l.047.023a13.884,13.884,0,0,0,1.655.694,13.793,13.793,0,0,0,16.492-6.242l9.764-17.23,17.433,1.236L158.7,195.913a6,6,0,0,1,0,8.468Zm1.617-17.892-43.549-43.548a3.458,3.458,0,0,0-.258-.237,3.906,3.906,0,0,0-2.225-.9l-21.345-1.514a3.967,3.967,0,0,0-3.672,1.97L78.284,161.637a5.988,5.988,0,1,1-10.418-5.9L82.52,129.87l5.938-1.709c.039-.012.077-.027.117-.039l22.163-6.4h26.778l33.43,42.5Zm15.747-28.4-30.915-39.321,15.778-10.034,28.887,37.523Zm0,0" transform="translate(0 -60.586)" fill="#dd0713"/>
    <path id="Path_77" data-name="Path 77" d="M304.048,63.341a3.892,3.892,0,0,0,2.761-1.144l26.662-26.662a3.9,3.9,0,0,0-5.521-5.521L301.289,56.677a3.9,3.9,0,0,0,2.759,6.664Zm0,0" transform="translate(-183.452 -17.341)" fill="#dd0713"/>
    <path id="Path_78" data-name="Path 78" d="M151,62.2a3.9,3.9,0,1,0,5.521-5.521L129.86,30.015a3.9,3.9,0,0,0-5.521,5.521Zm0,0" transform="translate(-75.299 -17.341)" fill="#dd0713"/>
    <path id="Path_79" data-name="Path 79" d="M249.864,70.57a3.9,3.9,0,0,0,3.9-3.9V44.6a3.9,3.9,0,1,0-7.806,0V66.667A3.9,3.9,0,0,0,249.864,70.57Zm0,0" transform="translate(-150.334 -24.57)" fill="#dd0713"/>
    <path id="Path_80" data-name="Path 80" d="M246.277,5.885a3.9,3.9,0,1,0,5.978-4.59,3.9,3.9,0,0,0-5.978,4.59Zm0,0" transform="translate(-150.35)" fill="#dd0713"/>
  </g>
</svg>
