<svg xmlns="http://www.w3.org/2000/svg" width="786.73" height="232.195" viewBox="0 0 786.73 232.195"><g transform="translate(-362.991 -569.33)"><path d="M950.126,722.071a4.322,4.322,0,0,0,.7.055h14.437c40.851,39.529,33.7,79.4,33.7,79.4C997.075,769.742,979.93,750.3,950.126,722.071Zm87.374,20.866a18.521,18.521,0,0,0,3.61,9.336c-9.9,5-20.78,11.007-32.79,18.429C1008.32,770.7,1010.34,760.832,1037.5,742.937Zm57.87-33.285c19.54-13.759,32.18-30.667,32.18-54.217,0-26.664-26.56-51.1-48.32-51.553-29.45-.615-36.33,8.079-56.86,19.91s-34.55,18.981-53.194,5.61c0,0,24.693,6.559,54.994-19.713,32.35-28.05,71.68-28.1,93.29-10.807s52.85,54.34,13.29,105.472c-7.37,9.523-15.95,15.3-26.82,20.493a22.835,22.835,0,0,0-6.12-13.045A21.113,21.113,0,0,0,1095.37,709.652ZM896.082,658.26c-6.365-14.77-4.2-37,1.654-51.093,8.907-21.422,24.484-38.422,64.117-37.822,47.547.721,55.837,37.1,55.837,37.1-14.05-9.726-28.1-16.93-52.955-18.961-17.388-1.422-38.655,13.891-49.984,28.892a14.1,14.1,0,0,0-11.049,13.7,13.942,13.942,0,0,0,3.187,8.867c.442,4.861,1.885,9.773,5.265,16.054H900.3A4.365,4.365,0,0,0,896.082,658.26Z" fill="#fff" fill-rule="evenodd"/><g transform="translate(-1336.47 -537.224)"><path d="M1732.277,1253.1h-12.536v1.887h44.8V1253.1H1752v-93.157h4.9c13.489,0,20.844,4.5,26.16,23.018h1.751v-24.9h-85.357v24.9h1.751c5.313-18.521,12.672-23.018,26.16-23.018h4.9Z" fill="#fff"/><path d="M1775.986,1198.476h8.851V1253.1h-8.851v1.887H1812.2V1253.1H1801.43v-34.875c0-11.577,7.772-18.794,11.591-18.794,3.132,0,3.132,3.132,3.132,3.268,0,.545-.95,5.719-.95,6.808,0,4.766,4.216,6.127,8.3,6.127,5.714,0,8.3-3.268,8.3-8.715,0-7.217-5.305-11.555-12.786-11.555-8.99,0-14.306,5.7-17.579,12.644h-.272v-11.419h-25.172Z" fill="#fff"/><path d="M1842.707,1198.476h9.123v39.366c0,13.211,6.936,18.369,19.592,18.369,8.175,0,17.307-4.338,20.305-12.239h.27v11.013h25.311V1253.1h-8.987v-56.509h-25.588v1.887h9v35.142c0,9.946-5.588,18.527-14.036,18.527-6.95,0-9.267-5.586-9.267-12.4v-43.159h-25.716Z" fill="#fff"/><path d="M1990.973,1220.807c0-18.513-14.284-26.125-26.814-26.125-17.707,0-31.719,15.242-31.719,30.893,0,19.483,14.692,31.315,33.627,31.315,15.8,0,22.334-10.335,24.088-17.01l-1.887-.681c-.409,3.132-5.722,15.8-20.164,15.8-16.212,0-17.3-15.123-17.3-28.067v-6.13Zm-40.169-1.887c.408-9.267.681-22.35,12.941-22.35,8.865,0,8.865,9.4,8.865,13.219v9.131Z" fill="#fff"/><path d="M2012.642,1253.1h-12.527v1.887h12.527c5.169,0,10.338.136,15.509.136,5.033.139,10.21.272,15.387.272,20.978,0,56.64-9.107,56.64-48.875,0-40.038-35.253-48.873-59.774-48.873-4.63,0-9.259.133-13.886.133-4.624.139-9.251.275-13.875.275h-12.527v1.887h12.527Zm19.725-93.157a65.152,65.152,0,0,1,8.445-.408c31.6,0,37.19,19.069,37.19,48.347,0,17.979-3.135,45.626-38.415,45.626a68.144,68.144,0,0,1-7.22-.409Z" fill="#fff"/><path d="M2177.248,1251.6c-1.5,1.634-2.86,2.59-5.174,2.59-3.949,0-4.493-3.135-4.493-6.541v-33.783c0-15.387-11.155-19.18-24.907-19.18-11.852,0-23.276,5.155-23.276,14.687,0,6.127,4.216,6.944,7.887,6.944,2.451,0,8.3,0,8.3-5.583,0-1.226-.814-6.536-.814-7.489,0-5.038,3.541-6.672,7.767-6.672,6.68,0,8.453,4.9,8.453,9.668v8.306c0,6.811-3.137,7.9-17.854,12.4-8.981,2.726-17.958,5.722-17.958,16.348,0,10.488,10.61,13.6,19.319,13.6,9.676,0,14.175-2.029,17.034-9.382h.272c1.089,5.722,5.3,9.382,14.42,9.382,4.218,0,9.665-.133,12.252-4.069Zm-26.261-12.4c0,10.626-4.907,14.578-9.542,14.578-8.45,0-8.859-8.72-8.859-12.944,0-10.9,7.633-13.077,14.447-16.345,2.454-1.228,3.407-2.181,3.679-3.271h.275Z" fill="#fff"/><path d="M2195.241,1196.589h-9.123v1.887h9.123v41.953c0,6.539,0,16.462,19.044,16.462,6.808,0,15.8-1.893,18.11-14.284l-2.042-.408c-1.5,5.586-4.493,11.988-11.3,11.988-6.264,0-7.217-4.769-7.217-10.082v-45.629h15.931v-1.887h-15.931v-17.565a19.007,19.007,0,0,1-16.593,0Z" fill="#fff"/><path d="M2236.772,1198.476h9.123V1253.1h-9.123v1.887h34.839V1253.1h-9.123v-56.509h-25.716Zm7.761-31.174a9.658,9.658,0,1,0,9.657-9.657A9.694,9.694,0,0,0,2244.533,1167.3Z" fill="#fff"/><path d="M2287.289,1254.985h34.164V1253.1h-8.584v-29.15c0-16.618,7.767-24.927,16.487-24.927,5.18,0,8.587,3.543,8.587,11.032V1253.1h-8.45v1.887h34.167V1253.1h-9.123v-38.412c0-11.713-7.209-19.322-18.911-19.322-16.215,0-21.256,11.422-22.756,14.826h-.272v-13.6h-25.308v1.887h8.987V1253.1h-8.987Z" fill="#fff"/><path d="M2395.392,1245.336c-6.13,0-10.082-2.184-10.082-6.683,0-2.045,0-4.365,5.313-7.753a43.421,43.421,0,0,0,16.623,3.252c17.832,0,24.5-9.926,24.5-18.916a17.416,17.416,0,0,0-5.438-13.216c3.535-2.587,4.624-3.132,5.711-3.132,1.906,0,1.906,1.225,2.315,3.813.272,1.773.953,4.9,5.991,4.9,3.677,0,5.991-2.179,5.991-5.858,0-4.221-2.587-7.064-7.9-7.064-5.991,0-8.712,2.023-13.336,6.247a28.448,28.448,0,0,0-18.1-6.247c-16.484,0-26.547,9.382-26.547,20.553,0,7.9,5.3,11.988,8.568,14.439-11.43,6.25-12.38,14.57-12.38,16.476,0,11.563,12.375,14.69,19.73,14.69v.272c-8.173,2.181-18.1,7.767-18.1,17.44,0,4.9,3.126,16.6,25.861,16.6,20.161,0,32.263-14.15,32.263-28.184,0-16.874-12.375-21.634-26-21.634Zm10.9-13.072c-6.266,0-10.9-1.909-10.9-19.074,0-8.445,1.637-16.62,10.9-16.62,9.676,0,10.5,7.767,10.5,18.257C2416.783,1229.81,2412.693,1232.264,2406.287,1232.264Zm-15.8,44.107c0-7.219,3.135-10.9,8.584-15.259h14.167c5.585,0,13.761,2.454,13.761,13.216s-9.265,18.529-19.619,18.529C2393.619,1292.858,2390.484,1282.912,2390.484,1276.371Z" fill="#fff"/></g></g></svg>