<?xml version="1.0" encoding="UTF-8" standalone="no"?>
<!DOCTYPE svg PUBLIC "-//W3C//DTD SVG 1.1//EN" "http://www.w3.org/Graphics/SVG/1.1/DTD/svg11.dtd">
<svg width="100%" height="100%" viewBox="0 0 787 233" version="1.1" xmlns="http://www.w3.org/2000/svg" xmlns:xlink="http://www.w3.org/1999/xlink" xml:space="preserve" xmlns:serif="http://www.serif.com/" style="fill-rule:evenodd;clip-rule:evenodd;stroke-linejoin:round;stroke-miterlimit:2;">
    <g transform="matrix(1,0,0,1,-362.993,-569.33)">
        <path d="M950.126,722.071C950.353,722.108 950.585,722.126 950.822,722.126L965.259,722.126C1006.11,761.655 998.955,801.525 998.955,801.525C997.075,769.742 979.93,750.305 950.126,722.071ZM1037.5,742.937C1037.75,745.547 1038.65,748.985 1041.11,752.273C1031.21,757.274 1020.33,763.28 1008.32,770.702C1008.32,770.702 1010.34,760.832 1037.5,742.937ZM1095.37,709.652C1114.91,695.893 1127.55,678.985 1127.55,655.435C1127.55,628.771 1100.99,604.337 1079.23,603.882C1049.78,603.267 1042.9,611.961 1022.37,623.792C1001.84,635.624 987.82,642.773 969.176,629.402C969.176,629.402 993.869,635.961 1024.17,609.689C1056.52,581.639 1095.85,581.592 1117.46,598.882C1139.08,616.172 1170.31,653.222 1130.75,704.354C1123.38,713.877 1114.8,719.657 1103.93,724.847C1103.12,719.217 1100.89,714.978 1097.81,711.802C1097.05,711.022 1096.24,710.306 1095.37,709.652ZM896.082,658.26C889.717,643.49 891.878,621.256 897.736,607.167C906.643,585.745 922.22,568.745 961.853,569.345C1009.4,570.066 1017.69,606.447 1017.69,606.447C1003.64,596.721 989.59,589.517 964.735,587.486C947.347,586.064 926.08,601.377 914.751,616.378C908.46,617.755 903.702,623.398 903.702,630.08C903.702,633.434 904.901,636.526 906.889,638.947C907.331,643.808 908.774,648.72 912.154,655.001L900.304,655.001C898.276,655.001 896.571,656.385 896.082,658.26Z"/>
        <g transform="matrix(2.72332,0,0,2.72332,-1336.47,-537.224)">
            <path d="M636.09,460.136L631.487,460.136L631.487,460.829L647.936,460.829L647.936,460.136L643.333,460.136L643.333,425.929L645.134,425.929C650.087,425.929 652.788,427.58 654.74,434.381L655.383,434.381L655.383,425.236L624.04,425.236L624.04,434.381L624.683,434.381C626.634,427.58 629.336,425.929 634.289,425.929L636.09,425.929L636.09,460.136Z" style="fill-rule:nonzero;"/>
            <path d="M652.14,440.079L655.39,440.079L655.39,460.136L652.14,460.136L652.14,460.829L665.438,460.829L665.438,460.136L661.483,460.136L661.483,447.33C661.483,443.079 664.337,440.429 665.739,440.429C666.889,440.429 666.889,441.579 666.889,441.629C666.889,441.829 666.54,443.729 666.54,444.129C666.54,445.879 668.088,446.379 669.586,446.379C671.684,446.379 672.633,445.179 672.633,443.179C672.633,440.529 670.685,438.936 667.938,438.936C664.637,438.936 662.685,441.029 661.483,443.579L661.383,443.579L661.383,439.386L652.14,439.386L652.14,440.079Z" style="fill-rule:nonzero;"/>
            <path d="M676.64,440.079L679.99,440.079L679.99,454.534C679.99,459.385 682.537,461.279 687.184,461.279C690.186,461.279 693.539,459.686 694.64,456.785L694.739,456.785L694.739,460.829L704.033,460.829L704.033,460.136L700.733,460.136L700.733,439.386L691.337,439.386L691.337,440.079L694.64,440.079L694.64,452.983C694.64,456.635 692.588,459.786 689.486,459.786C686.934,459.786 686.083,457.735 686.083,455.234L686.083,439.386L676.64,439.386L676.64,440.079Z" style="fill-rule:nonzero;"/>
            <path d="M731.083,448.279C731.083,441.481 725.838,438.686 721.237,438.686C714.735,438.686 709.59,444.283 709.59,450.03C709.59,457.184 714.985,461.529 721.938,461.529C727.739,461.529 730.139,457.734 730.783,455.283L730.09,455.033C729.94,456.183 727.989,460.836 722.686,460.836C716.733,460.836 716.333,455.283 716.333,450.53L716.333,448.279L731.083,448.279ZM716.333,447.586C716.483,444.183 716.583,439.379 721.085,439.379C724.34,439.379 724.34,442.832 724.34,444.233L724.34,447.586L716.333,447.586Z" style="fill-rule:nonzero;"/>
            <path d="M739.04,460.136L734.44,460.136L734.44,460.829L739.04,460.829C740.938,460.829 742.836,460.879 744.735,460.879C746.583,460.93 748.484,460.979 750.385,460.979C758.088,460.979 771.183,457.635 771.183,443.032C771.183,428.33 758.238,425.086 749.234,425.086C747.534,425.086 745.834,425.135 744.135,425.135C742.437,425.186 740.738,425.236 739.04,425.236L734.44,425.236L734.44,425.929L739.04,425.929L739.04,460.136ZM746.283,425.929C746.934,425.829 748.084,425.779 749.384,425.779C760.989,425.779 763.04,432.781 763.04,443.532C763.04,450.134 761.889,460.286 748.934,460.286C748.034,460.284 747.234,460.235 746.283,460.136L746.283,425.929Z" style="fill-rule:nonzero;"/>
            <path d="M799.483,459.585C798.933,460.185 798.433,460.536 797.583,460.536C796.133,460.536 795.933,459.385 795.933,458.134L795.933,445.729C795.933,440.079 791.837,438.686 786.787,438.686C782.435,438.686 778.24,440.579 778.24,444.079C778.24,446.329 779.788,446.629 781.136,446.629C782.036,446.629 784.183,446.629 784.183,444.579C784.183,444.129 783.884,442.179 783.884,441.829C783.884,439.979 785.184,439.379 786.736,439.379C789.189,439.379 789.84,441.179 789.84,442.929L789.84,445.979C789.84,448.48 788.688,448.88 783.284,450.531C779.986,451.532 776.69,452.632 776.69,456.534C776.69,460.385 780.586,461.529 783.784,461.529C787.337,461.529 788.989,460.784 790.039,458.084L790.139,458.084C790.539,460.185 792.087,461.529 795.434,461.529C796.983,461.529 798.983,461.48 799.933,460.035L799.483,459.585ZM789.84,455.033C789.84,458.935 788.038,460.386 786.336,460.386C783.233,460.386 783.083,457.184 783.083,455.633C783.083,451.632 785.886,450.831 788.388,449.631C789.289,449.18 789.639,448.83 789.739,448.43L789.84,448.43L789.84,455.033Z" style="fill-rule:nonzero;"/>
            <path d="M806.09,439.386L802.74,439.386L802.74,440.079L806.09,440.079L806.09,455.484C806.09,457.885 806.09,461.529 813.083,461.529C815.583,461.529 818.883,460.834 819.733,456.284L818.983,456.134C818.433,458.185 817.333,460.536 814.833,460.536C812.533,460.536 812.183,458.785 812.183,456.834L812.183,440.079L818.033,440.079L818.033,439.386L812.183,439.386L812.183,432.936C811.184,433.336 810.135,433.636 809.136,433.636C808.137,433.636 807.089,433.336 806.09,432.936L806.09,439.386Z" style="fill-rule:nonzero;"/>
            <path d="M821.34,440.079L824.69,440.079L824.69,460.136L821.34,460.136L821.34,460.829L834.133,460.829L834.133,460.136L830.783,460.136L830.783,439.386L821.34,439.386L821.34,440.079ZM824.19,428.632C824.19,430.581 825.788,432.179 827.736,432.179C829.685,432.179 831.283,430.581 831.283,428.632C831.283,426.684 829.685,425.086 827.736,425.086C825.788,425.086 824.19,426.684 824.19,428.632Z" style="fill-rule:nonzero;"/>
            <path d="M839.89,460.829L852.435,460.829L852.435,460.136L849.283,460.136L849.283,449.432C849.283,443.33 852.135,440.279 855.337,440.279C857.239,440.279 858.49,441.58 858.49,444.33L858.49,460.136L855.387,460.136L855.387,460.829L867.933,460.829L867.933,460.136L864.583,460.136L864.583,446.031C864.583,441.73 861.936,438.936 857.639,438.936C851.685,438.936 849.834,443.13 849.283,444.38L849.183,444.38L849.183,439.386L839.89,439.386L839.89,440.079L843.19,440.079L843.19,460.136L839.89,460.136L839.89,460.829Z" style="fill-rule:nonzero;"/>
            <path d="M879.585,457.286C877.334,457.286 875.883,456.484 875.883,454.832C875.883,454.081 875.883,453.229 877.834,451.985C879.135,452.535 881.286,453.179 883.938,453.179C890.486,453.179 892.933,449.534 892.933,446.233C892.933,443.531 891.735,442.231 890.936,441.38C892.234,440.43 892.634,440.23 893.033,440.23C893.733,440.23 893.733,440.68 893.883,441.63C893.983,442.281 894.233,443.431 896.083,443.431C897.433,443.431 898.283,442.631 898.283,441.28C898.283,439.73 897.333,438.686 895.383,438.686C893.183,438.686 892.184,439.429 890.486,440.98C888.938,439.78 886.839,438.686 883.838,438.686C877.785,438.686 874.09,442.131 874.09,446.233C874.09,449.134 876.037,450.635 877.236,451.535C873.039,453.83 872.69,456.885 872.69,457.585C872.69,461.831 877.234,462.979 879.935,462.979L879.935,463.079C876.934,463.88 873.29,465.931 873.29,469.483C873.29,471.284 874.438,475.579 882.786,475.579C890.189,475.579 894.633,470.383 894.633,465.23C894.633,459.034 890.089,457.286 885.087,457.286L879.585,457.286ZM883.586,452.486C881.285,452.486 879.583,451.785 879.583,445.482C879.583,442.381 880.184,439.379 883.586,439.379C887.139,439.379 887.44,442.231 887.44,446.083C887.44,451.585 885.938,452.486 883.586,452.486ZM877.783,468.682C877.783,466.031 878.934,464.68 880.935,463.079L886.137,463.079C888.188,463.079 891.19,463.98 891.19,467.932C891.19,471.884 887.788,474.736 883.986,474.736C878.934,474.736 877.783,471.084 877.783,468.682Z" style="fill-rule:nonzero;"/>
        </g>
    </g>
</svg>
