<svg xmlns="http://www.w3.org/2000/svg" width="184.477" height="184.079" viewBox="0 0 184.477 184.079">
  <g id="credit-card" transform="translate(0 -0.516)">
    <g id="Group_32" data-name="Group 32" transform="translate(0 0.516)">
      <g id="Group_31" data-name="Group 31" transform="translate(0 0)">
        <rect id="Rectangle_69" data-name="Rectangle 69" width="18.487" height="6.162" transform="translate(132.489 122.851)" fill="#dd0713"/>
        <rect id="Rectangle_70" data-name="Rectangle 70" width="18.487" height="6.162" transform="translate(107.84 122.851)" fill="#dd0713"/>
        <rect id="Rectangle_71" data-name="Rectangle 71" width="18.487" height="6.162" transform="translate(83.191 122.851)" fill="#dd0713"/>
        <path id="Path_29" data-name="Path 29" d="M181.747,64.218,120.781,3.243A9.2,9.2,0,0,0,114.23.516H114.2a9.117,9.117,0,0,0-6.5,2.727L43.031,67.907H9.243A9.243,9.243,0,0,0,0,77.15v86.272a9.243,9.243,0,0,0,9.243,9.243h45.65l9.194,9.2a9.2,9.2,0,0,0,6.55,2.727h.025a9.121,9.121,0,0,0,6.5-2.727l9.213-9.2h70.761a9.243,9.243,0,0,0,9.243-9.243V92.66l15.35-15.35a9.195,9.195,0,0,0,.015-13.092Zm-39.2-30.482-34.17,34.17H82.217l47.252-47.252ZM112.067,7.587a3.038,3.038,0,0,1,4.3-.051l.051.051,8.7,8.71L73.5,67.907H51.745ZM72.8,177.524a3,3,0,0,1-2.157.924,3.081,3.081,0,0,1-2.194-.924l-4.84-4.859H77.663Zm87.418-14.1a3.081,3.081,0,0,1-3.081,3.081H9.243a3.081,3.081,0,0,1-3.081-3.081V120.286H160.219Zm0-49.3H6.162V95.637H160.219Zm0-24.649H6.162V77.15a3.081,3.081,0,0,1,3.081-3.081H157.138a3.081,3.081,0,0,1,3.081,3.081ZM177.39,72.938h0L166.381,83.947v-6.8a9.243,9.243,0,0,0-9.243-9.243H117.083L146.9,38.094l30.482,30.482a3.08,3.08,0,0,1,.924,2.2A3.021,3.021,0,0,1,177.39,72.938Z" transform="translate(0 -0.516)" fill="#dd0713"/>
        <path id="Path_30" data-name="Path 30" d="M44.182,381.142a12.322,12.322,0,0,0,1.26-1.26,12.217,12.217,0,0,0,16.219,2.089,12.528,12.528,0,0,0,5.349-10.155,12.325,12.325,0,0,0-12.325-12.325,9.346,9.346,0,0,0-1.824.154l-.08.022h-.089a12.166,12.166,0,0,0-7.25,4.092,12.324,12.324,0,1,0-1.26,17.384Zm9.724-15.424a3.72,3.72,0,0,1,.78-.065,6.162,6.162,0,0,1,6.162,6.162,6.042,6.042,0,0,1-1.211,3.614c-.111.151-.2.308-.324.465-.022.025-.052.04-.077.065a6.125,6.125,0,1,1-5.33-10.242ZM36.2,365.653a6.162,6.162,0,1,1-6.162,6.162A6.162,6.162,0,0,1,36.2,365.653Z" transform="translate(-14.631 -221.234)" fill="#dd0713"/>
      </g>
    </g>
  </g>
</svg>
