<svg xmlns="http://www.w3.org/2000/svg" width="31.169" height="66.818" viewBox="0 0 31.169 66.818"><g transform="translate(-319.465 -35.309)"><g transform="translate(320.715 36.581)"><g transform="translate(9.036)"><path d="M377.407,36.684c3.379-.72,6.93,2.465,6.216,5.956a.258.258,0,0,0,0,.034c-.322,4.5-6.936,5.849-9.387,2.262-2.441-2.9-.355-7.494,3.176-8.252Z" transform="translate(-373.173 -36.581)" fill="none" stroke="#f0458f" stroke-miterlimit="10" stroke-width="2.5"/></g><g transform="translate(0 12.039)"><path d="M326.817,108.234c2.595-2.485,6.453-1.53,9.683-1.726,2.67-.186,5.886.175,7.45,2.649,1.911,3.181,2.4,6.954,3.628,10.407a.284.284,0,0,1,.009.029c.571,2.3,1.658,4.58,1.791,6.946a2.056,2.056,0,0,1-3.83,1.171q-.04-.074-.076-.154c-.005-.012-.011-.025-.015-.038-1.534-4.175-2.6-8.516-4.038-12.728a1.853,1.853,0,0,0-.292-.621.389.389,0,0,0-.691.324c1.753,7.185,4.061,14.232,6.065,21.353a1.74,1.74,0,0,1-1.666,2.212c-1.174.005-2.348.005-3.523-.009a.389.389,0,0,0-.394.379c-.14,5.82.068,11.644-.082,17.453.04,1.358-.858,2.89-2.354,2.837a2.4,2.4,0,0,1-2.391-2.731.286.286,0,0,0,0-.038c-.069-5.842.062-11.69-.047-17.534a.389.389,0,0,0-.4-.381l-.681.019a.389.389,0,0,0-.377.381c-.1,6.058.129,12.126-.108,18.178-.2,2.782-4.388,2.707-4.648-.007-.132-6.051,0-12.108-.062-18.16a.388.388,0,0,0-.391-.384q-1.8.011-3.594,0a1.771,1.771,0,0,1-1.7-2.2c1.754-7.122,3.7-14.2,5.407-21.323a.39.39,0,0,0-.592-.416l-.009.006a.39.39,0,0,0-.155.2c-1.507,4.343-2.439,8.878-3.929,13.225-.461,1.909-3.765,1.878-4.071-.052a1.735,1.735,0,0,1-.006-.44c.328-3.3,1.7-6.436,2.515-9.648l.007-.022c1.052-3.084,1.343-6.622,3.569-9.155Z" transform="translate(-320.715 -106.467)" fill="none" stroke="#f0458f" stroke-miterlimit="10" stroke-width="2.5"/></g></g></g></svg>