<svg xmlns="http://www.w3.org/2000/svg" width="27.776" height="67.301" viewBox="0 0 27.776 67.301"><g transform="translate(1.234 1.3)"><g transform="translate(7.606 0)"><path d="M145.534,35.625c3.766-1.191,7.943,3.152,6.223,6.823-1.084,3.692-6.555,4.658-8.86,1.613-2.538-2.69-1-7.7,2.638-8.436Z" transform="translate(-141.643 -35.425)" fill="none" stroke="#0688b9" stroke-miterlimit="10" stroke-width="2.5"/></g><g transform="translate(0 11.481)"><path d="M100.93,102.606c3.437-1.356,7.2-.708,10.794-.855,3.1.056,6.683-.415,9.244,1.744,1.943,1.533,2.02,4.224,2.047,6.494-.033,4.977.03,9.964-.021,14.946.051,1.12-.41,2.842-1.794,2.787-1.634.4-2.719-1.364-2.661-2.787-.031-4.672,0-9.343-.007-14.016a.485.485,0,0,0-.493-.485l-.66.01a.485.485,0,0,0-.477.483c-.064,13.706.035,27.412-.051,41.11.354,3.326-5.472,4.079-5.75.652-.12-8.1-.013-16.217-.047-24.319a.68.68,0,0,0-.681-.677h0a.679.679,0,0,0-.679.68c.005,7.04-.023,14.075.014,21.119a12.346,12.346,0,0,1-.731,4.669c-1.888,1.554-5.478.779-5.364-2.056-.112-13.7.025-27.405-.067-41.112a.486.486,0,0,0-.486-.483h-.339a.487.487,0,0,0-.487.479c-.068,4.439.019,8.874-.018,13.312,0,1.442-.683,3.657-2.427,3.463-.163-.018-.327-.029-.49-.043a2.014,2.014,0,0,1-1.537-2.209c-.057-5.829-.036-11.659-.007-17.489a5.535,5.535,0,0,1,3.179-5.418Z" transform="translate(-97.722 -101.721)" fill="none" stroke="#0688b9" stroke-miterlimit="10" stroke-width="2.5"/></g></g></svg>