<svg xmlns="http://www.w3.org/2000/svg" width="153.47" height="180.223" viewBox="0 0 153.47 180.223">
  <g id="surface1" transform="translate(0 0.001)">
    <path id="Path_73" data-name="Path 73" d="M153.291,48.9l-.005-.14c-.079-1.731-.131-3.563-.162-5.6a19.1,19.1,0,0,0-17.985-18.712c-20.721-1.156-36.751-7.913-50.447-21.263l-.117-.111a11.534,11.534,0,0,0-15.675,0l-.117.111c-13.7,13.35-29.726,20.107-50.447,21.264A19.1,19.1,0,0,0,.351,43.159c-.03,2.024-.084,3.855-.162,5.6l-.008.326c-.4,21.13-.9,47.426,7.894,71.295a90.756,90.756,0,0,0,21.773,33.914c10.945,10.681,25.28,19.161,42.608,25.2a13.2,13.2,0,0,0,1.746.476,12.9,12.9,0,0,0,5.071,0,13.239,13.239,0,0,0,1.753-.478c17.307-6.053,31.627-14.536,42.563-25.216a90.883,90.883,0,0,0,21.773-33.922C154.192,96.414,153.693,70.068,153.291,48.9Zm-17.852,67.8c-9.278,25.157-28.219,42.434-57.9,52.815a2.659,2.659,0,0,1-.335.091,2.373,2.373,0,0,1-.929,0,2.636,2.636,0,0,1-.333-.089C46.222,159.148,27.269,141.881,18,116.723c-8.108-22-7.649-46.141-7.243-67.436l0-.118c.083-1.83.137-3.747.168-5.853a8.49,8.49,0,0,1,8-8.309,92.784,92.784,0,0,0,31.493-6.927A82.394,82.394,0,0,0,76.083,10.836a.975.975,0,0,1,1.309,0,82.425,82.425,0,0,0,25.664,17.242,92.789,92.789,0,0,0,31.494,6.927,8.488,8.488,0,0,1,8,8.311c.032,2.117.087,4.034.169,5.852C143.123,70.488,143.571,94.647,135.439,116.695Zm0,0" transform="translate(0 0)" fill="#dd0713"/>
    <path id="Path_74" data-name="Path 74" d="M135.312,128.41a44.915,44.915,0,1,0,44.914,44.914A44.965,44.965,0,0,0,135.312,128.41Zm0,79.253a34.339,34.339,0,1,1,34.338-34.339A34.378,34.378,0,0,1,135.312,207.663Zm0,0" transform="translate(-58.578 -83.211)" fill="#dd0713"/>
    <path id="Path_75" data-name="Path 75" d="M189.223,213.541,168.361,234.4,162.7,228.74a5.288,5.288,0,1,0-7.479,7.477l9.4,9.4a5.287,5.287,0,0,0,7.477,0l24.6-24.6a5.288,5.288,0,1,0-7.479-7.477Zm0,0" transform="translate(-99.58 -137.371)" fill="#dd0713"/>
  </g>
</svg>
